<svg xmlns="http://www.w3.org/2000/svg" version="1.1" xmlns:xlink="http://www.w3.org/1999/xlink" xmlns:svgjs="http://svgjs.dev/svgjs" width="2000" height="2242" viewBox="0 0 2000 2242"><g transform="matrix(1,0,0,1,-3.115264797507507,0)"><svg viewBox="0 0 321 360" data-background-color="#ffffff" preserveAspectRatio="xMidYMid meet" height="2242" width="2000" xmlns="http://www.w3.org/2000/svg" xmlns:xlink="http://www.w3.org/1999/xlink"><g id="tight-bounds" transform="matrix(1,0,0,1,0.5,0)"><svg viewBox="0 0 320 360" height="360" width="320"><g><svg></svg></g><g><svg viewBox="0 0 320 360" height="360" width="320"><g><path d="M20.961 227.22l3.726 4.658-1.863-6.056c-0.466-2.795-3.726 0.466-1.863 1.398M25.153 224.425c1.397 2.329 2.795 4.658 2.795 6.987 0 3.261 2.795 4.658 5.123 5.589-3.261-3.726-5.124-13.974-7.918-12.576M204.017 26.929c7.918 0 15.371-0.932 23.756 0.931 20.495 5.124 37.729 15.371 49.374 29.811l32.606 52.169c1.397 13.042 4.192 27.482 3.726 43.319 3.261 0 2.795-4.658 6.521-5.59-3.726 9.316-5.59 20.961-6.521 34.469-2.329-7.453 0-18.632 0.466-24.687-3.261 5.124-5.124 1.397-5.124-0.932 0.466-3.726-1.397-3.261-2.795-4.658-5.124-4.658-8.384-9.782-12.11-17.7 2.329-6.055 2.795-14.905-4.658-19.563-2.329-1.397-5.124-3.726-6.521-7.453-1.863-5.124-5.124-11.179-4.193-19.097 0.466-2.329-6.987 5.124-11.179 1.863-18.166-12.576-36.332-27.016-58.224-39.127-11.645 0-20.029-4.192-24.221-9.316-3.726-4.658-0.932-10.713 4.658-11.179 3.261 0 6.987-0.932 9.782 0.932 0.466-1.863 2.329-4.192 4.657-4.192M157.904 16.215l0.932 0.466c4.658 0.932 6.987 7.453 12.11 5.124 0 3.261 0.466 6.521-0.466 8.85-1.397 3.726-5.59 3.726-8.85 3.726-31.208-1.863-49.374 11.179-68.471 22.358-5.124 3.261-10.713 5.59-14.906 9.782-20.029 18.632-41.921 35.866-47.045 70.335l-4.192 38.195c-0.466 4.192-5.124 8.384-4.192 13.508l3.26 22.824c-3.261-3.261-5.124 0.932-4.192 2.795 0.466 1.397 2.329 6.055 5.124 1.863 3.726 6.987 7.453 20.495 12.576 26.55 15.837 18.632 36.332 35.4 53.101 52.169 4.192-0.932 7.453-0.932 8.384-3.727 1.397 2.795-1.397 5.59-3.726 6.056 7.453 4.658 15.837 8.85 27.016 9.781 14.44 0.932 27.948 3.261 40.524 6.522 6.521-1.863 13.042-2.795 20.029-3.261 2.329 0 3.726-3.726 6.521-4.658l0.466-4.658c2.795 4.192 2.329-1.397 0.466-4.192 3.261 2.795 4.192 5.124 5.589 6.987 0-1.397 3.726-6.521 3.727-0.466l0.931-6.055c1.397-0.932 1.863 5.124 3.261 0.931 1.397-4.192 4.192-0.932 6.987-2.329-0.932 1.863-0.466 5.59 2.794 3.261l3.727-3.261c2.329 5.59 6.055 3.261 7.918 2.329 20.495-13.042 40.99-28.413 60.553-43.784l-0.466 6.055 2.329-7.453c2.329 2.329 4.192 0.466 5.124-0.931 2.795-4.658 6.521-9.316 12.577-13.508-7.453 20.029-16.303 35.866-27.482 48.908l-4.658 5.59c0 3.261-0.932 7.453-4.658 7.918-1.863 0.466-5.59-0.932-8.384 1.863-1.397 1.863 3.261 5.59-0.466 2.795-3.261-2.329-6.521 0-10.248 0.932-2.795 0.932 1.863 3.726 2.795 5.589 0.932 1.863 1.863 3.726 1.398 6.056l-5.124-5.59c-6.055 3.261-9.782 9.316-14.906 13.974-2.329 1.863-1.397 5.124-1.397 7.918-3.261 0-6.987-0.932-8.85 0.932-1.397 1.863-0.932 4.658-0.932 7.453-4.658-0.466-5.124-7.453-9.315-6.056-4.192 0.932-8.85 1.397-12.577 3.727 2.795 5.59-4.658 2.329-3.726 3.26-6.987-4.192-13.042-7.453-20.495-4.658-15.837-5.124-35.4-2.795-49.84-0.931 0-2.329 0.466-4.658-0.466-5.124-0.932 2.329-3.726 1.397-3.26 1.397-8.85-6.055-17.7-9.782-27.016-14.905-8.384 0.932-16.303-3.261-18.632-5.59-6.521-6.055-13.974-2.795-20.029-4.192-13.042-3.261-17.7-16.769-19.098-26.084-0.932-4.658-4.658-6.521-6.055-6.056-6.055-19.563-15.371-37.263-22.824-55.429-1.863-4.658-1.397-9.316-1.397-14.44 2.329 0.932 4.658 0.466 4.192-2.794-2.329-15.371-7.918-27.016-13.974-38.195 3.261-15.837 3.726-34.469 11.179-48.443 6.521-12.576 18.632-19.098 27.016-29.811 2.795-3.726 2.795-8.85 5.59-12.11 9.316-9.316 18.632-19.098 28.879-27.482 4.658-3.726 10.247 0 17.234-1.397 2.329-8.384 11.645-15.837 20.495-13.508 3.726 0.932 11.179-8.85 13.508-9.782 3.726-1.397 1.863 3.726 1.863 6.987 8.85-6.987 20.961-10.713 32.14-14.906" fill="#30af5b" fill-rule="nonzero" stroke="none" stroke-width="1" stroke-linecap="butt" stroke-linejoin="miter" stroke-miterlimit="10" stroke-dasharray="" stroke-dashoffset="0" font-family="none" font-weight="none" font-size="none" text-anchor="none" style="mix-blend-mode: normal" data-fill-palette-color="tertiary"></path></g><g transform="matrix(1,0,0,1,64,163.30151549423206)"><svg viewBox="0 0 192 33.39696901153585" height="33.39696901153585" width="192"><g><svg viewBox="0 0 192 33.39696901153585" height="33.39696901153585" width="192"><g><svg viewBox="0 0 192 33.39696901153585" height="33.39696901153585" width="192"><g id="textblocktransform"><svg viewBox="0 0 192 33.39696901153585" height="33.39696901153585" width="192" id="textblock"><g><svg viewBox="0 0 192 33.39696901153585" height="33.39696901153585" width="192"><g transform="matrix(1,0,0,1,0,0)"><svg width="192" viewBox="3 -39.65 222.93 40.4" height="33.39696901153585" data-palette-color="#000000"><g class="wordmark-text-0" data-fill-palette-color="primary" id="text-0"><path d="M10.9-34.55Q17.15-34.55 20.43-31.78 23.7-29 23.7-23.6L23.7-23.6Q23.7-17.85 20.48-15 17.25-12.15 11.35-12.15L11.35-12.15 9.35-12.15 9.35 0 3 0 3-34.55 10.9-34.55ZM11-16.9Q14.25-16.9 15.7-18.4 17.15-19.9 17.15-23.55L17.15-23.55Q17.15-26.85 15.7-28.35 14.25-29.85 11.05-29.85L11.05-29.85 9.35-29.85 9.35-16.9 11-16.9ZM44.2-6.4Q44.2-5.1 44.55-4.48 44.9-3.85 45.7-3.45L45.7-3.45 44.45 0.65Q42.4 0.4 41.17-0.45 39.95-1.3 39.35-3.05L39.35-3.05Q37.05 0.75 32.9 0.75L32.9 0.75Q29.6 0.75 27.65-1.48 25.7-3.7 25.7-7.4L25.7-7.4Q25.7-11.7 28.37-13.95 31.05-16.2 36.15-16.2L36.15-16.2 38.2-16.2 38.2-18.05Q38.2-20.55 37.32-21.58 36.45-22.6 34.5-22.6L34.5-22.6Q32.15-22.6 28.65-21.3L28.65-21.3 27.25-25.3Q29.25-26.2 31.4-26.68 33.55-27.15 35.5-27.15L35.5-27.15Q44.2-27.15 44.2-18.35L44.2-18.35 44.2-6.4ZM34.55-3.7Q36.95-3.7 38.2-7L38.2-7 38.2-12.55 36.75-12.55Q34.2-12.55 33.02-11.4 31.85-10.25 31.85-7.85L31.85-7.85Q31.85-5.8 32.55-4.75 33.25-3.7 34.55-3.7L34.55-3.7ZM61.15-5L63.3-1.2Q60.85 0.75 57.55 0.75L57.55 0.75Q54.1 0.75 52.3-1.23 50.5-3.2 50.5-6.6L50.5-6.6 50.5-22 47.4-22 47.4-26.45 50.5-26.45 50.5-32.3 56.65-33.05 56.65-26.45 61.65-26.45 61.05-22 56.65-22 56.65-6.6Q56.65-4.2 58.7-4.2L58.7-4.2Q59.35-4.2 59.85-4.38 60.35-4.55 61.15-5L61.15-5ZM78.19-27.15Q81.04-27.15 82.69-25.1 84.34-23.05 84.34-19.6L84.34-19.6 84.34 0 78.19 0 78.19-18.9Q78.19-20.8 77.67-21.63 77.14-22.45 76.14-22.45L76.14-22.45Q74.04-22.45 71.99-18.5L71.99-18.5 71.99 0 65.84 0 65.84-37 71.99-37.65 71.99-23.3Q73.24-25.25 74.72-26.2 76.19-27.15 78.19-27.15L78.19-27.15ZM99.59-33.05Q98.19-33.05 97.52-32.3 96.84-31.55 96.84-30L96.84-30 96.84-26.45 101.89-26.45 101.19-22 96.84-22 96.84 0 90.69 0 90.69-22 87.39-22 87.39-26.45 90.69-26.45 90.69-29.8Q90.69-33.4 92.79-35.55 94.89-37.7 98.79-37.7L98.79-37.7Q101.84-37.7 104.69-36.2L104.69-36.2 102.99-32.2Q101.24-33.05 99.59-33.05L99.59-33.05ZM104.69-26.45L110.84-26.45 110.84 0 104.69 0 104.69-26.45ZM107.74-39.65Q109.39-39.65 110.41-38.6 111.44-37.55 111.44-35.9L111.44-35.9Q111.44-34.3 110.41-33.25 109.39-32.2 107.74-32.2L107.74-32.2Q106.09-32.2 105.06-33.25 104.04-34.3 104.04-35.9L104.04-35.9Q104.04-37.55 105.06-38.6 106.09-39.65 107.74-39.65L107.74-39.65ZM128.89-27.15Q131.74-27.15 133.39-25.1 135.04-23.05 135.04-19.6L135.04-19.6 135.04 0 128.89 0 128.89-18.9Q128.89-20.8 128.36-21.63 127.84-22.45 126.84-22.45L126.84-22.45Q124.74-22.45 122.69-18.5L122.69-18.5 122.69 0 116.54 0 116.54-26.45 121.89-26.45 122.34-23Q123.69-25.1 125.21-26.13 126.74-27.15 128.89-27.15L128.89-27.15ZM153.53-37.7L159.68-37.05 159.68 0 154.23 0 153.93-3.05Q151.58 0.75 147.88 0.75L147.88 0.75Q143.78 0.75 141.61-2.93 139.43-6.6 139.43-13.2L139.43-13.2Q139.43-17.4 140.56-20.58 141.68-23.75 143.68-25.45 145.68-27.15 148.28-27.15L148.28-27.15Q151.48-27.15 153.53-24.5L153.53-24.5 153.53-37.7ZM149.63-3.9Q150.78-3.9 151.71-4.7 152.63-5.5 153.53-7L153.53-7 153.53-19.85Q151.93-22.55 149.88-22.55L149.88-22.55Q145.83-22.55 145.83-13.25L145.83-13.25Q145.83-8.2 146.83-6.05 147.83-3.9 149.63-3.9L149.63-3.9ZM184.23-13.85Q184.23-13.4 184.08-11.3L184.08-11.3 170.43-11.3Q170.63-7.2 171.86-5.58 173.08-3.95 175.33-3.95L175.33-3.95Q176.88-3.95 178.13-4.48 179.38-5 180.83-6.15L180.83-6.15 183.38-2.65Q179.88 0.75 174.98 0.75L174.98 0.75Q169.78 0.75 167.01-2.85 164.23-6.45 164.23-13L164.23-13Q164.23-19.55 166.88-23.35 169.53-27.15 174.38-27.15L174.38-27.15Q179.03-27.15 181.63-23.78 184.23-20.4 184.23-13.85L184.23-13.85ZM178.23-15.3L178.23-15.65Q178.23-19.4 177.33-21.13 176.43-22.85 174.43-22.85L174.43-22.85Q172.58-22.85 171.61-21.18 170.63-19.5 170.43-15.3L170.43-15.3 178.23-15.3ZM200.18-27.1Q201.33-27.1 202.23-26.75L202.23-26.75 201.23-20.85Q200.23-21.1 199.38-21.1L199.38-21.1Q197.48-21.1 196.38-19.45 195.28-17.8 194.68-14.55L194.68-14.55 194.68 0 188.53 0 188.53-26.45 193.88-26.45 194.33-21.85Q196.18-27.1 200.18-27.1L200.18-27.1ZM225.18-34.55L217.68-18.65 225.93 0 219.23 0 213.83-14.4 208.63 0 202.08 0 210.08-18.4 202.68-34.55 209.38-34.55 213.93-22.35 218.73-34.55 225.18-34.55Z" fill="#000000" data-fill-palette-color="primary"></path></g></svg></g></svg></g></svg></g></svg></g><g></g></svg></g></svg></g></svg></g><defs></defs></svg><rect width="320" height="360" fill="none" stroke="none" visibility="hidden"></rect></g></svg></g></svg>